<?xml version="1.0" standalone="no"?>
<!DOCTYPE svg PUBLIC "-//W3C//DTD SVG 20010904//EN"
 "http://www.w3.org/TR/2001/REC-SVG-20010904/DTD/svg10.dtd">
<svg version="1.0" xmlns="http://www.w3.org/2000/svg"
 width="348.000000pt" height="256.000000pt" viewBox="0 0 348.000000 256.000000"
 preserveAspectRatio="xMidYMid meet">

<g transform="translate(0.000000,256.000000) scale(0.100000,-0.100000)"
fill="#ffffff" stroke="none">
<path d="M630 2390 l0 -160 160 0 160 0 0 -160 0 -160 -160 0 -160 0 0 -160 0
-160 -155 0 -155 0 -2 -162 -3 -163 -157 -3 -158 -3 0 -469 0 -470 160 0 160
0 0 315 0 315 155 0 155 0 0 -315 0 -315 160 0 160 0 0 -160 0 -160 320 0 320
0 0 160 0 160 -320 0 -320 0 0 160 0 160 788 -2 787 -3 3 -158 3 -157 -321 0
-320 0 0 -160 0 -160 320 0 320 0 0 160 0 160 160 0 160 0 0 315 0 315 155 0
155 0 0 -315 0 -315 160 0 160 0 0 470 0 469 -157 3 -158 3 -3 163 -2 162
-155 0 -155 0 0 155 0 155 -160 0 -160 0 0 165 0 165 160 0 160 0 0 160 0 160
-160 0 -160 0 0 -160 0 -160 -160 0 -160 0 0 -160 0 -160 -470 0 -470 0 0 160
0 160 -160 0 -160 0 0 160 0 160 -160 0 -160 0 0 -160z m630 -960 l0 -160
-155 0 -155 0 0 160 0 160 155 0 155 0 0 -160z m1270 0 l0 -160 -155 0 -155 0
0 160 0 160 155 0 155 0 0 -160z"/>
</g>
</svg>
