<?xml version="1.0" standalone="no"?>
<!DOCTYPE svg PUBLIC "-//W3C//DTD SVG 20010904//EN"
 "http://www.w3.org/TR/2001/REC-SVG-20010904/DTD/svg10.dtd">
<svg version="1.0" xmlns="http://www.w3.org/2000/svg"
 width="320.000000pt" height="320.000000pt" viewBox="0 0 320.000000 320.000000"
 preserveAspectRatio="xMidYMid meet">

<g transform="translate(0.000000,320.000000) scale(0.100000,-0.100000)"
fill="#ffffff" stroke="none">
<path d="M1218 2963 l-3 -198 -190 0 -190 0 -5 -195 -5 -195 -105 -1 c-58 0
-147 -1 -197 -2 l-93 -2 0 -195 0 -195 -195 0 -195 0 0 -385 0 -385 393 -2
392 -3 3 -192 2 -193 190 0 190 0 0 195 0 195 393 -2 392 -3 3 -192 2 -193
190 0 190 0 2 193 3 192 393 3 392 2 0 385 0 385 -197 2 -198 3 -3 192 -2 193
-193 2 -192 3 -3 193 -2 192 -78 2 c-42 1 -129 3 -192 3 l-115 0 -3 198 -2
197 -385 0 -385 0 -2 -197z m-4 -1163 c4 -104 5 -194 1 -200 -4 -6 -77 -10
-201 -10 l-194 0 0 200 0 200 194 0 193 0 7 -190z m1174 -7 l-3 -198 -195 0
-195 0 -3 185 c-1 101 0 190 2 197 4 10 51 13 201 13 l195 0 -2 -197z"/>
<path d="M437 803 c-4 -3 -7 -89 -7 -190 l0 -183 195 0 195 0 0 190 0 190
-188 0 c-104 0 -192 -3 -195 -7z"/>
<path d="M1220 620 l0 -190 385 0 385 0 0 190 0 190 -385 0 -385 0 0 -190z"/>
<path d="M2390 620 l0 -190 189 0 190 0 3 183 c2 100 2 185 0 190 -2 4 -88 7
-193 7 l-189 0 0 -190z"/>
<path d="M40 225 l0 -195 195 0 195 0 -2 193 -3 192 -192 3 -193 2 0 -195z"/>
<path d="M830 225 l0 -195 190 0 190 0 0 195 0 195 -190 0 -190 0 0 -195z"/>
<path d="M2000 225 l0 -195 190 0 190 0 0 195 0 195 -190 0 -190 0 0 -195z"/>
<path d="M2787 413 c-4 -3 -7 -91 -7 -195 l0 -188 195 0 195 0 0 195 0 195
-188 0 c-104 0 -192 -3 -195 -7z"/>
</g>
</svg>
