<?xml version="1.0" standalone="no"?>
<!DOCTYPE svg PUBLIC "-//W3C//DTD SVG 20010904//EN"
 "http://www.w3.org/TR/2001/REC-SVG-20010904/DTD/svg10.dtd">
<svg version="1.0" xmlns="http://www.w3.org/2000/svg"
 width="304.000000pt" height="132.000000pt" viewBox="0 0 304.000000 132.000000"
 preserveAspectRatio="xMidYMid meet">

<g transform="translate(0.000000,132.000000) scale(0.100000,-0.100000)"
fill="#ff0000" stroke="none">
<path d="M950 1225 l0 -95 -190 0 -190 0 0 -95 0 -95 -95 0 -95 0 0 -95 0 -95
-95 0 -95 0 0 -90 0 -90 -95 0 -95 0 0 -95 0 -95 190 0 190 0 0 -95 0 -95 95
0 95 0 0 -95 0 -95 95 0 95 0 0 95 0 95 95 0 95 0 0 95 0 95 190 0 190 0 0
-95 0 -95 190 0 190 0 0 95 0 95 190 0 190 0 0 -95 0 -95 95 0 95 0 0 -95 0
-96 93 3 92 3 3 92 3 93 94 0 95 0 0 95 0 95 190 0 191 0 -3 92 -3 93 -92 3
-93 3 0 89 0 90 -95 0 -95 0 0 95 0 95 -95 0 -95 0 0 95 0 95 -190 0 -190 0 0
95 0 95 -570 0 -570 0 0 -95z m-190 -565 l0 -90 -95 0 -95 0 0 90 0 90 95 0
95 0 0 -90z m570 0 l0 -90 -95 0 -95 0 0 90 0 90 95 0 95 0 0 -90z m570 0 l0
-90 -95 0 -95 0 0 90 0 90 95 0 95 0 0 -90z m570 0 l0 -90 -95 0 -95 0 0 90 0
90 95 0 95 0 0 -90z"/>
</g>
</svg>
